<mxfile host="app.diagrams.net" modified="2022-03-13T15:57:08.049Z" agent="5.0 (Windows NT 10.0; Win64; x64) AppleWebKit/537.36 (KHTML, like Gecko) Chrome/99.0.4844.51 Safari/537.36 Edg/99.0.1150.39" etag="yD6JLuP4flTDmKvSwi-t" version="16.6.8" type="github" pages="2">
  <diagram id="R2lEEEUBdFMjLlhIrx00" name="Page-1">
    <mxGraphModel dx="1422" dy="832" grid="1" gridSize="10" guides="1" tooltips="1" connect="1" arrows="1" fold="1" page="1" pageScale="1" pageWidth="850" pageHeight="1100" math="0" shadow="0" extFonts="Permanent Marker^https://fonts.googleapis.com/css?family=Permanent+Marker">
      <root>
        <mxCell id="0" />
        <mxCell id="1" parent="0" />
        <mxCell id="C-vyLk0tnHw3VtMMgP7b-2" value="Doctor" style="shape=table;startSize=30;container=1;collapsible=1;childLayout=tableLayout;fixedRows=1;rowLines=0;fontStyle=1;align=center;resizeLast=1;" parent="1" vertex="1">
          <mxGeometry x="520" y="300" width="240" height="140" as="geometry" />
        </mxCell>
        <mxCell id="C-vyLk0tnHw3VtMMgP7b-3" value="" style="shape=partialRectangle;collapsible=0;dropTarget=0;pointerEvents=0;fillColor=none;points=[[0,0.5],[1,0.5]];portConstraint=eastwest;top=0;left=0;right=0;bottom=1;" parent="C-vyLk0tnHw3VtMMgP7b-2" vertex="1">
          <mxGeometry y="30" width="240" height="30" as="geometry" />
        </mxCell>
        <mxCell id="C-vyLk0tnHw3VtMMgP7b-4" value="PK" style="shape=partialRectangle;overflow=hidden;connectable=0;fillColor=none;top=0;left=0;bottom=0;right=0;fontStyle=1;" parent="C-vyLk0tnHw3VtMMgP7b-3" vertex="1">
          <mxGeometry width="30" height="30" as="geometry">
            <mxRectangle width="30" height="30" as="alternateBounds" />
          </mxGeometry>
        </mxCell>
        <mxCell id="C-vyLk0tnHw3VtMMgP7b-5" value="d_id int NOT NULL " style="shape=partialRectangle;overflow=hidden;connectable=0;fillColor=none;top=0;left=0;bottom=0;right=0;align=left;spacingLeft=6;fontStyle=5;" parent="C-vyLk0tnHw3VtMMgP7b-3" vertex="1">
          <mxGeometry x="30" width="210" height="30" as="geometry">
            <mxRectangle width="210" height="30" as="alternateBounds" />
          </mxGeometry>
        </mxCell>
        <mxCell id="C-vyLk0tnHw3VtMMgP7b-6" value="" style="shape=partialRectangle;collapsible=0;dropTarget=0;pointerEvents=0;fillColor=none;points=[[0,0.5],[1,0.5]];portConstraint=eastwest;top=0;left=0;right=0;bottom=0;" parent="C-vyLk0tnHw3VtMMgP7b-2" vertex="1">
          <mxGeometry y="60" width="240" height="30" as="geometry" />
        </mxCell>
        <mxCell id="C-vyLk0tnHw3VtMMgP7b-7" value="" style="shape=partialRectangle;overflow=hidden;connectable=0;fillColor=none;top=0;left=0;bottom=0;right=0;" parent="C-vyLk0tnHw3VtMMgP7b-6" vertex="1">
          <mxGeometry width="30" height="30" as="geometry">
            <mxRectangle width="30" height="30" as="alternateBounds" />
          </mxGeometry>
        </mxCell>
        <mxCell id="C-vyLk0tnHw3VtMMgP7b-8" value="" style="shape=partialRectangle;overflow=hidden;connectable=0;fillColor=none;top=0;left=0;bottom=0;right=0;align=left;spacingLeft=6;" parent="C-vyLk0tnHw3VtMMgP7b-6" vertex="1">
          <mxGeometry x="30" width="210" height="30" as="geometry">
            <mxRectangle width="210" height="30" as="alternateBounds" />
          </mxGeometry>
        </mxCell>
        <mxCell id="C-vyLk0tnHw3VtMMgP7b-9" value="" style="shape=partialRectangle;collapsible=0;dropTarget=0;pointerEvents=0;fillColor=none;points=[[0,0.5],[1,0.5]];portConstraint=eastwest;top=0;left=0;right=0;bottom=0;" parent="C-vyLk0tnHw3VtMMgP7b-2" vertex="1">
          <mxGeometry y="90" width="240" height="30" as="geometry" />
        </mxCell>
        <mxCell id="C-vyLk0tnHw3VtMMgP7b-10" value="" style="shape=partialRectangle;overflow=hidden;connectable=0;fillColor=none;top=0;left=0;bottom=0;right=0;" parent="C-vyLk0tnHw3VtMMgP7b-9" vertex="1">
          <mxGeometry width="30" height="30" as="geometry">
            <mxRectangle width="30" height="30" as="alternateBounds" />
          </mxGeometry>
        </mxCell>
        <mxCell id="C-vyLk0tnHw3VtMMgP7b-11" value="" style="shape=partialRectangle;overflow=hidden;connectable=0;fillColor=none;top=0;left=0;bottom=0;right=0;align=left;spacingLeft=6;" parent="C-vyLk0tnHw3VtMMgP7b-9" vertex="1">
          <mxGeometry x="30" width="210" height="30" as="geometry">
            <mxRectangle width="210" height="30" as="alternateBounds" />
          </mxGeometry>
        </mxCell>
        <mxCell id="C-vyLk0tnHw3VtMMgP7b-13" value="Pharmacy" style="shape=table;startSize=30;container=1;collapsible=1;childLayout=tableLayout;fixedRows=1;rowLines=0;fontStyle=1;align=center;resizeLast=1;" parent="1" vertex="1">
          <mxGeometry x="530" y="630" width="240" height="130" as="geometry" />
        </mxCell>
        <mxCell id="C-vyLk0tnHw3VtMMgP7b-14" value="" style="shape=partialRectangle;collapsible=0;dropTarget=0;pointerEvents=0;fillColor=none;points=[[0,0.5],[1,0.5]];portConstraint=eastwest;top=0;left=0;right=0;bottom=1;" parent="C-vyLk0tnHw3VtMMgP7b-13" vertex="1">
          <mxGeometry y="30" width="240" height="30" as="geometry" />
        </mxCell>
        <mxCell id="C-vyLk0tnHw3VtMMgP7b-15" value="PK" style="shape=partialRectangle;overflow=hidden;connectable=0;fillColor=none;top=0;left=0;bottom=0;right=0;fontStyle=1;" parent="C-vyLk0tnHw3VtMMgP7b-14" vertex="1">
          <mxGeometry width="30" height="30" as="geometry">
            <mxRectangle width="30" height="30" as="alternateBounds" />
          </mxGeometry>
        </mxCell>
        <mxCell id="C-vyLk0tnHw3VtMMgP7b-16" value="h_id int NOT NULL " style="shape=partialRectangle;overflow=hidden;connectable=0;fillColor=none;top=0;left=0;bottom=0;right=0;align=left;spacingLeft=6;fontStyle=5;" parent="C-vyLk0tnHw3VtMMgP7b-14" vertex="1">
          <mxGeometry x="30" width="210" height="30" as="geometry">
            <mxRectangle width="210" height="30" as="alternateBounds" />
          </mxGeometry>
        </mxCell>
        <mxCell id="C-vyLk0tnHw3VtMMgP7b-17" value="" style="shape=partialRectangle;collapsible=0;dropTarget=0;pointerEvents=0;fillColor=none;points=[[0,0.5],[1,0.5]];portConstraint=eastwest;top=0;left=0;right=0;bottom=0;" parent="C-vyLk0tnHw3VtMMgP7b-13" vertex="1">
          <mxGeometry y="60" width="240" height="30" as="geometry" />
        </mxCell>
        <mxCell id="C-vyLk0tnHw3VtMMgP7b-18" value="" style="shape=partialRectangle;overflow=hidden;connectable=0;fillColor=none;top=0;left=0;bottom=0;right=0;" parent="C-vyLk0tnHw3VtMMgP7b-17" vertex="1">
          <mxGeometry width="30" height="30" as="geometry">
            <mxRectangle width="30" height="30" as="alternateBounds" />
          </mxGeometry>
        </mxCell>
        <mxCell id="C-vyLk0tnHw3VtMMgP7b-19" value="pharmacy_name char(50) NOT NULL" style="shape=partialRectangle;overflow=hidden;connectable=0;fillColor=none;top=0;left=0;bottom=0;right=0;align=left;spacingLeft=6;" parent="C-vyLk0tnHw3VtMMgP7b-17" vertex="1">
          <mxGeometry x="30" width="210" height="30" as="geometry">
            <mxRectangle width="210" height="30" as="alternateBounds" />
          </mxGeometry>
        </mxCell>
        <mxCell id="C-vyLk0tnHw3VtMMgP7b-20" value="" style="shape=partialRectangle;collapsible=0;dropTarget=0;pointerEvents=0;fillColor=none;points=[[0,0.5],[1,0.5]];portConstraint=eastwest;top=0;left=0;right=0;bottom=0;" parent="C-vyLk0tnHw3VtMMgP7b-13" vertex="1">
          <mxGeometry y="90" width="240" height="30" as="geometry" />
        </mxCell>
        <mxCell id="C-vyLk0tnHw3VtMMgP7b-21" value="" style="shape=partialRectangle;overflow=hidden;connectable=0;fillColor=none;top=0;left=0;bottom=0;right=0;" parent="C-vyLk0tnHw3VtMMgP7b-20" vertex="1">
          <mxGeometry width="30" height="30" as="geometry">
            <mxRectangle width="30" height="30" as="alternateBounds" />
          </mxGeometry>
        </mxCell>
        <mxCell id="C-vyLk0tnHw3VtMMgP7b-22" value="location char(100) NOT NULL" style="shape=partialRectangle;overflow=hidden;connectable=0;fillColor=none;top=0;left=0;bottom=0;right=0;align=left;spacingLeft=6;" parent="C-vyLk0tnHw3VtMMgP7b-20" vertex="1">
          <mxGeometry x="30" width="210" height="30" as="geometry">
            <mxRectangle width="210" height="30" as="alternateBounds" />
          </mxGeometry>
        </mxCell>
        <mxCell id="C-vyLk0tnHw3VtMMgP7b-23" value="Patient" style="shape=table;startSize=30;container=1;collapsible=1;childLayout=tableLayout;fixedRows=1;rowLines=0;fontStyle=1;align=center;resizeLast=1;" parent="1" vertex="1">
          <mxGeometry x="50" y="290" width="240" height="140" as="geometry" />
        </mxCell>
        <mxCell id="C-vyLk0tnHw3VtMMgP7b-24" value="" style="shape=partialRectangle;collapsible=0;dropTarget=0;pointerEvents=0;fillColor=none;points=[[0,0.5],[1,0.5]];portConstraint=eastwest;top=0;left=0;right=0;bottom=1;" parent="C-vyLk0tnHw3VtMMgP7b-23" vertex="1">
          <mxGeometry y="30" width="240" height="30" as="geometry" />
        </mxCell>
        <mxCell id="C-vyLk0tnHw3VtMMgP7b-25" value="PK" style="shape=partialRectangle;overflow=hidden;connectable=0;fillColor=none;top=0;left=0;bottom=0;right=0;fontStyle=1;" parent="C-vyLk0tnHw3VtMMgP7b-24" vertex="1">
          <mxGeometry width="30" height="30" as="geometry">
            <mxRectangle width="30" height="30" as="alternateBounds" />
          </mxGeometry>
        </mxCell>
        <mxCell id="C-vyLk0tnHw3VtMMgP7b-26" value="p_id int NOT NULL " style="shape=partialRectangle;overflow=hidden;connectable=0;fillColor=none;top=0;left=0;bottom=0;right=0;align=left;spacingLeft=6;fontStyle=5;" parent="C-vyLk0tnHw3VtMMgP7b-24" vertex="1">
          <mxGeometry x="30" width="210" height="30" as="geometry">
            <mxRectangle width="210" height="30" as="alternateBounds" />
          </mxGeometry>
        </mxCell>
        <mxCell id="C-vyLk0tnHw3VtMMgP7b-27" value="" style="shape=partialRectangle;collapsible=0;dropTarget=0;pointerEvents=0;fillColor=none;points=[[0,0.5],[1,0.5]];portConstraint=eastwest;top=0;left=0;right=0;bottom=0;" parent="C-vyLk0tnHw3VtMMgP7b-23" vertex="1">
          <mxGeometry y="60" width="240" height="30" as="geometry" />
        </mxCell>
        <mxCell id="C-vyLk0tnHw3VtMMgP7b-28" value="" style="shape=partialRectangle;overflow=hidden;connectable=0;fillColor=none;top=0;left=0;bottom=0;right=0;" parent="C-vyLk0tnHw3VtMMgP7b-27" vertex="1">
          <mxGeometry width="30" height="30" as="geometry">
            <mxRectangle width="30" height="30" as="alternateBounds" />
          </mxGeometry>
        </mxCell>
        <mxCell id="C-vyLk0tnHw3VtMMgP7b-29" value="patient_name char(50) NOT NULL" style="shape=partialRectangle;overflow=hidden;connectable=0;fillColor=none;top=0;left=0;bottom=0;right=0;align=left;spacingLeft=6;" parent="C-vyLk0tnHw3VtMMgP7b-27" vertex="1">
          <mxGeometry x="30" width="210" height="30" as="geometry">
            <mxRectangle width="210" height="30" as="alternateBounds" />
          </mxGeometry>
        </mxCell>
        <mxCell id="1otFdiM4tNjmoqmFSZvJ-6" value="patient_address char(100) NOT NULL" style="shape=partialRectangle;overflow=hidden;connectable=0;fillColor=none;top=0;left=0;bottom=0;right=0;align=left;spacingLeft=6;" parent="1" vertex="1">
          <mxGeometry x="80" y="370" width="220" height="30" as="geometry" />
        </mxCell>
        <mxCell id="1otFdiM4tNjmoqmFSZvJ-7" value="patient_age int NOT NULL" style="shape=partialRectangle;overflow=hidden;connectable=0;fillColor=none;top=0;left=0;bottom=0;right=0;align=left;spacingLeft=6;" parent="1" vertex="1">
          <mxGeometry x="80" y="390" width="220" height="30" as="geometry" />
        </mxCell>
        <mxCell id="1otFdiM4tNjmoqmFSZvJ-8" value="doctor_name char(50) NOT NULL" style="shape=partialRectangle;overflow=hidden;connectable=0;fillColor=none;top=0;left=0;bottom=0;right=0;align=left;spacingLeft=6;" parent="1" vertex="1">
          <mxGeometry x="550" y="360" width="210" height="30" as="geometry">
            <mxRectangle width="210" height="30" as="alternateBounds" />
          </mxGeometry>
        </mxCell>
        <mxCell id="1otFdiM4tNjmoqmFSZvJ-9" value="specialty char(50) NOT NULL" style="shape=partialRectangle;overflow=hidden;connectable=0;fillColor=none;top=0;left=0;bottom=0;right=0;align=left;spacingLeft=6;" parent="1" vertex="1">
          <mxGeometry x="550" y="380" width="210" height="30" as="geometry">
            <mxRectangle width="210" height="30" as="alternateBounds" />
          </mxGeometry>
        </mxCell>
        <mxCell id="1otFdiM4tNjmoqmFSZvJ-10" value="experience_years int " style="shape=partialRectangle;overflow=hidden;connectable=0;fillColor=none;top=0;left=0;bottom=0;right=0;align=left;spacingLeft=6;" parent="1" vertex="1">
          <mxGeometry x="550" y="400" width="210" height="30" as="geometry">
            <mxRectangle width="210" height="30" as="alternateBounds" />
          </mxGeometry>
        </mxCell>
        <mxCell id="1otFdiM4tNjmoqmFSZvJ-11" value="Drug" style="shape=table;startSize=30;container=1;collapsible=1;childLayout=tableLayout;fixedRows=1;rowLines=0;fontStyle=1;align=center;resizeLast=1;" parent="1" vertex="1">
          <mxGeometry x="60" y="630" width="250" height="130" as="geometry" />
        </mxCell>
        <mxCell id="1otFdiM4tNjmoqmFSZvJ-12" value="" style="shape=partialRectangle;collapsible=0;dropTarget=0;pointerEvents=0;fillColor=none;points=[[0,0.5],[1,0.5]];portConstraint=eastwest;top=0;left=0;right=0;bottom=1;" parent="1otFdiM4tNjmoqmFSZvJ-11" vertex="1">
          <mxGeometry y="30" width="250" height="30" as="geometry" />
        </mxCell>
        <mxCell id="1otFdiM4tNjmoqmFSZvJ-13" value="PK" style="shape=partialRectangle;overflow=hidden;connectable=0;fillColor=none;top=0;left=0;bottom=0;right=0;fontStyle=1;" parent="1otFdiM4tNjmoqmFSZvJ-12" vertex="1">
          <mxGeometry width="30" height="30" as="geometry">
            <mxRectangle width="30" height="30" as="alternateBounds" />
          </mxGeometry>
        </mxCell>
        <mxCell id="1otFdiM4tNjmoqmFSZvJ-14" value="m_id int NOT NULL " style="shape=partialRectangle;overflow=hidden;connectable=0;fillColor=none;top=0;left=0;bottom=0;right=0;align=left;spacingLeft=6;fontStyle=5;" parent="1otFdiM4tNjmoqmFSZvJ-12" vertex="1">
          <mxGeometry x="30" width="220" height="30" as="geometry">
            <mxRectangle width="220" height="30" as="alternateBounds" />
          </mxGeometry>
        </mxCell>
        <mxCell id="1otFdiM4tNjmoqmFSZvJ-15" value="" style="shape=partialRectangle;collapsible=0;dropTarget=0;pointerEvents=0;fillColor=none;points=[[0,0.5],[1,0.5]];portConstraint=eastwest;top=0;left=0;right=0;bottom=0;" parent="1otFdiM4tNjmoqmFSZvJ-11" vertex="1">
          <mxGeometry y="60" width="250" height="30" as="geometry" />
        </mxCell>
        <mxCell id="1otFdiM4tNjmoqmFSZvJ-16" value="" style="shape=partialRectangle;overflow=hidden;connectable=0;fillColor=none;top=0;left=0;bottom=0;right=0;" parent="1otFdiM4tNjmoqmFSZvJ-15" vertex="1">
          <mxGeometry width="30" height="30" as="geometry">
            <mxRectangle width="30" height="30" as="alternateBounds" />
          </mxGeometry>
        </mxCell>
        <mxCell id="1otFdiM4tNjmoqmFSZvJ-17" value="drug_name char(50) NOT NULL" style="shape=partialRectangle;overflow=hidden;connectable=0;fillColor=none;top=0;left=0;bottom=0;right=0;align=left;spacingLeft=6;" parent="1otFdiM4tNjmoqmFSZvJ-15" vertex="1">
          <mxGeometry x="30" width="220" height="30" as="geometry">
            <mxRectangle width="220" height="30" as="alternateBounds" />
          </mxGeometry>
        </mxCell>
        <mxCell id="1otFdiM4tNjmoqmFSZvJ-18" value="" style="shape=partialRectangle;collapsible=0;dropTarget=0;pointerEvents=0;fillColor=none;points=[[0,0.5],[1,0.5]];portConstraint=eastwest;top=0;left=0;right=0;bottom=0;" parent="1otFdiM4tNjmoqmFSZvJ-11" vertex="1">
          <mxGeometry y="90" width="250" height="30" as="geometry" />
        </mxCell>
        <mxCell id="1otFdiM4tNjmoqmFSZvJ-19" value="" style="shape=partialRectangle;overflow=hidden;connectable=0;fillColor=none;top=0;left=0;bottom=0;right=0;" parent="1otFdiM4tNjmoqmFSZvJ-18" vertex="1">
          <mxGeometry width="30" height="30" as="geometry">
            <mxRectangle width="30" height="30" as="alternateBounds" />
          </mxGeometry>
        </mxCell>
        <mxCell id="1otFdiM4tNjmoqmFSZvJ-20" value="formula char(100) " style="shape=partialRectangle;overflow=hidden;connectable=0;fillColor=none;top=0;left=0;bottom=0;right=0;align=left;spacingLeft=6;" parent="1otFdiM4tNjmoqmFSZvJ-18" vertex="1">
          <mxGeometry x="30" width="220" height="30" as="geometry">
            <mxRectangle width="220" height="30" as="alternateBounds" />
          </mxGeometry>
        </mxCell>
        <mxCell id="1otFdiM4tNjmoqmFSZvJ-58" style="edgeStyle=orthogonalEdgeStyle;rounded=0;orthogonalLoop=1;jettySize=auto;html=1;exitX=1;exitY=0.5;exitDx=0;exitDy=0;entryX=-0.008;entryY=0.233;entryDx=0;entryDy=0;entryPerimeter=0;" parent="1" source="1otFdiM4tNjmoqmFSZvJ-21" target="C-vyLk0tnHw3VtMMgP7b-3" edge="1">
          <mxGeometry relative="1" as="geometry">
            <Array as="points">
              <mxPoint x="430" y="337" />
            </Array>
          </mxGeometry>
        </mxCell>
        <mxCell id="1otFdiM4tNjmoqmFSZvJ-21" value="primary care&amp;nbsp;" style="shape=rhombus;perimeter=rhombusPerimeter;whiteSpace=wrap;html=1;align=center;" parent="1" vertex="1">
          <mxGeometry x="340" y="305" width="90" height="60" as="geometry" />
        </mxCell>
        <mxCell id="1otFdiM4tNjmoqmFSZvJ-25" value="" style="shape=link;html=1;rounded=0;width=3.333333333333332;entryX=0;entryY=0.5;entryDx=0;entryDy=0;exitX=1;exitY=0.5;exitDx=0;exitDy=0;" parent="1" source="C-vyLk0tnHw3VtMMgP7b-24" target="1otFdiM4tNjmoqmFSZvJ-21" edge="1">
          <mxGeometry relative="1" as="geometry">
            <mxPoint x="290" y="350" as="sourcePoint" />
            <mxPoint x="340" y="350" as="targetPoint" />
            <Array as="points" />
          </mxGeometry>
        </mxCell>
        <mxCell id="1otFdiM4tNjmoqmFSZvJ-32" value="sells" style="shape=rhombus;perimeter=rhombusPerimeter;whiteSpace=wrap;html=1;align=center;" parent="1" vertex="1">
          <mxGeometry x="380" y="650" width="90" height="60" as="geometry" />
        </mxCell>
        <mxCell id="1otFdiM4tNjmoqmFSZvJ-34" value="" style="shape=link;html=1;rounded=0;width=4.814814814814813;exitX=0.942;exitY=0.53;exitDx=0;exitDy=0;exitPerimeter=0;" parent="1" source="1otFdiM4tNjmoqmFSZvJ-32" edge="1">
          <mxGeometry relative="1" as="geometry">
            <mxPoint x="470" y="679.63" as="sourcePoint" />
            <mxPoint x="530" y="679.63" as="targetPoint" />
          </mxGeometry>
        </mxCell>
        <mxCell id="1otFdiM4tNjmoqmFSZvJ-36" value="" style="endArrow=none;html=1;rounded=0;entryX=0;entryY=0.5;entryDx=0;entryDy=0;" parent="1" target="1otFdiM4tNjmoqmFSZvJ-32" edge="1">
          <mxGeometry relative="1" as="geometry">
            <mxPoint x="310" y="680" as="sourcePoint" />
            <mxPoint x="370" y="679.63" as="targetPoint" />
            <Array as="points">
              <mxPoint x="340" y="679.63" />
            </Array>
          </mxGeometry>
        </mxCell>
        <mxCell id="1otFdiM4tNjmoqmFSZvJ-37" value="prescribes" style="shape=rhombus;perimeter=rhombusPerimeter;whiteSpace=wrap;html=1;align=center;" parent="1" vertex="1">
          <mxGeometry x="150" y="490" width="100" height="60" as="geometry" />
        </mxCell>
        <mxCell id="1otFdiM4tNjmoqmFSZvJ-39" value="" style="endArrow=none;html=1;rounded=0;" parent="1" target="1otFdiM4tNjmoqmFSZvJ-37" edge="1">
          <mxGeometry relative="1" as="geometry">
            <mxPoint x="30" y="510" as="sourcePoint" />
            <mxPoint x="150" y="509.74" as="targetPoint" />
          </mxGeometry>
        </mxCell>
        <mxCell id="1otFdiM4tNjmoqmFSZvJ-41" value="" style="endArrow=none;html=1;rounded=0;" parent="1" edge="1">
          <mxGeometry relative="1" as="geometry">
            <mxPoint x="30" y="510" as="sourcePoint" />
            <mxPoint x="30" y="340" as="targetPoint" />
          </mxGeometry>
        </mxCell>
        <mxCell id="1otFdiM4tNjmoqmFSZvJ-42" value="" style="endArrow=none;html=1;rounded=0;" parent="1" edge="1">
          <mxGeometry relative="1" as="geometry">
            <mxPoint x="30" y="340" as="sourcePoint" />
            <mxPoint x="50" y="340" as="targetPoint" />
            <Array as="points">
              <mxPoint x="30" y="340" />
            </Array>
          </mxGeometry>
        </mxCell>
        <mxCell id="1otFdiM4tNjmoqmFSZvJ-43" value="" style="endArrow=none;html=1;rounded=0;" parent="1" edge="1">
          <mxGeometry relative="1" as="geometry">
            <mxPoint x="40" y="580" as="sourcePoint" />
            <mxPoint x="200" y="580" as="targetPoint" />
          </mxGeometry>
        </mxCell>
        <mxCell id="1otFdiM4tNjmoqmFSZvJ-44" value="" style="endArrow=none;html=1;rounded=0;exitX=0.5;exitY=1;exitDx=0;exitDy=0;" parent="1" source="1otFdiM4tNjmoqmFSZvJ-37" edge="1">
          <mxGeometry relative="1" as="geometry">
            <mxPoint x="199.57" y="540" as="sourcePoint" />
            <mxPoint x="200" y="580" as="targetPoint" />
          </mxGeometry>
        </mxCell>
        <mxCell id="1otFdiM4tNjmoqmFSZvJ-45" value="" style="endArrow=none;html=1;rounded=0;" parent="1" edge="1">
          <mxGeometry relative="1" as="geometry">
            <mxPoint x="40" y="580" as="sourcePoint" />
            <mxPoint x="40" y="680" as="targetPoint" />
          </mxGeometry>
        </mxCell>
        <mxCell id="1otFdiM4tNjmoqmFSZvJ-46" value="" style="endArrow=none;html=1;rounded=0;" parent="1" edge="1">
          <mxGeometry relative="1" as="geometry">
            <mxPoint x="40" y="680" as="sourcePoint" />
            <mxPoint x="60" y="679.5699999999999" as="targetPoint" />
          </mxGeometry>
        </mxCell>
        <mxCell id="1otFdiM4tNjmoqmFSZvJ-47" value="" style="endArrow=none;html=1;rounded=0;exitX=1;exitY=0.5;exitDx=0;exitDy=0;" parent="1" source="1otFdiM4tNjmoqmFSZvJ-37" edge="1">
          <mxGeometry relative="1" as="geometry">
            <mxPoint x="255" y="509.57" as="sourcePoint" />
            <mxPoint x="520" y="340" as="targetPoint" />
          </mxGeometry>
        </mxCell>
        <mxCell id="1otFdiM4tNjmoqmFSZvJ-57" style="edgeStyle=orthogonalEdgeStyle;rounded=0;orthogonalLoop=1;jettySize=auto;html=1;exitX=0.5;exitY=0;exitDx=0;exitDy=0;entryX=-0.017;entryY=-0.067;entryDx=0;entryDy=0;entryPerimeter=0;" parent="1" source="1otFdiM4tNjmoqmFSZvJ-48" target="C-vyLk0tnHw3VtMMgP7b-6" edge="1">
          <mxGeometry relative="1" as="geometry" />
        </mxCell>
        <mxCell id="1otFdiM4tNjmoqmFSZvJ-48" value="supervises" style="shape=rhombus;perimeter=rhombusPerimeter;whiteSpace=wrap;html=1;align=center;" parent="1" vertex="1">
          <mxGeometry x="440" y="480" width="100" height="60" as="geometry" />
        </mxCell>
        <mxCell id="1otFdiM4tNjmoqmFSZvJ-52" value="" style="shape=link;html=1;rounded=0;" parent="1" edge="1">
          <mxGeometry relative="1" as="geometry">
            <mxPoint x="489.5" y="540" as="sourcePoint" />
            <mxPoint x="490" y="670" as="targetPoint" />
          </mxGeometry>
        </mxCell>
        <mxCell id="1otFdiM4tNjmoqmFSZvJ-59" value="" style="shape=link;html=1;rounded=0;" parent="1" edge="1">
          <mxGeometry relative="1" as="geometry">
            <mxPoint x="490" y="670" as="sourcePoint" />
            <mxPoint x="530" y="670" as="targetPoint" />
          </mxGeometry>
        </mxCell>
        <mxCell id="1otFdiM4tNjmoqmFSZvJ-61" value="price" style="text;strokeColor=none;fillColor=none;spacingLeft=4;spacingRight=4;overflow=hidden;rotatable=0;points=[[0,0.5],[1,0.5]];portConstraint=eastwest;fontSize=12;" parent="1" vertex="1">
          <mxGeometry x="405" y="600" width="40" height="30" as="geometry" />
        </mxCell>
        <mxCell id="1otFdiM4tNjmoqmFSZvJ-62" value="" style="endArrow=none;html=1;rounded=0;" parent="1" edge="1">
          <mxGeometry relative="1" as="geometry">
            <mxPoint x="424" y="620" as="sourcePoint" />
            <mxPoint x="424" y="650" as="targetPoint" />
          </mxGeometry>
        </mxCell>
        <mxCell id="1otFdiM4tNjmoqmFSZvJ-63" value="date" style="text;strokeColor=none;fillColor=none;spacingLeft=4;spacingRight=4;overflow=hidden;rotatable=0;points=[[0,0.5],[1,0.5]];portConstraint=eastwest;fontSize=12;fontStyle=4" parent="1" vertex="1">
          <mxGeometry x="270" y="505" width="40" height="30" as="geometry" />
        </mxCell>
        <mxCell id="1otFdiM4tNjmoqmFSZvJ-64" value="description" style="text;strokeColor=none;fillColor=none;spacingLeft=4;spacingRight=4;overflow=hidden;rotatable=0;points=[[0,0.5],[1,0.5]];portConstraint=eastwest;fontSize=12;" parent="1" vertex="1">
          <mxGeometry x="240" y="535" width="70" height="30" as="geometry" />
        </mxCell>
        <mxCell id="1otFdiM4tNjmoqmFSZvJ-66" value="" style="endArrow=none;html=1;rounded=0;" parent="1" edge="1">
          <mxGeometry relative="1" as="geometry">
            <mxPoint x="250" y="519.6" as="sourcePoint" />
            <mxPoint x="270" y="520" as="targetPoint" />
          </mxGeometry>
        </mxCell>
        <mxCell id="1otFdiM4tNjmoqmFSZvJ-69" value="" style="endArrow=none;html=1;rounded=0;" parent="1" edge="1">
          <mxGeometry relative="1" as="geometry">
            <mxPoint x="220" y="540" as="sourcePoint" />
            <mxPoint x="240" y="550" as="targetPoint" />
          </mxGeometry>
        </mxCell>
        <mxCell id="1otFdiM4tNjmoqmFSZvJ-70" value="Requirement: a doctor can supervise multiple pharmacies &#xa;at once." style="text;strokeColor=none;fillColor=none;spacingLeft=4;spacingRight=4;overflow=hidden;rotatable=0;points=[[0,0.5],[1,0.5]];portConstraint=eastwest;fontSize=12;" parent="1" vertex="1">
          <mxGeometry x="490" y="540" width="330" height="40" as="geometry" />
        </mxCell>
        <mxCell id="1otFdiM4tNjmoqmFSZvJ-71" value="regular care" style="shape=rhombus;perimeter=rhombusPerimeter;whiteSpace=wrap;html=1;align=center;" parent="1" vertex="1">
          <mxGeometry x="340" y="230" width="95" height="60" as="geometry" />
        </mxCell>
        <mxCell id="1otFdiM4tNjmoqmFSZvJ-73" value="" style="endArrow=none;html=1;rounded=0;exitX=1.007;exitY=0.227;exitDx=0;exitDy=0;exitPerimeter=0;entryX=0;entryY=0.5;entryDx=0;entryDy=0;" parent="1" source="C-vyLk0tnHw3VtMMgP7b-24" target="1otFdiM4tNjmoqmFSZvJ-71" edge="1">
          <mxGeometry relative="1" as="geometry">
            <mxPoint x="177.5" y="260" as="sourcePoint" />
            <mxPoint x="337.5" y="260" as="targetPoint" />
          </mxGeometry>
        </mxCell>
        <mxCell id="K8MvuFTA2SwjXxJ1fh8y-1" value="" style="endArrow=none;html=1;rounded=0;exitX=0.956;exitY=0.596;exitDx=0;exitDy=0;exitPerimeter=0;" parent="1" source="1otFdiM4tNjmoqmFSZvJ-21" edge="1">
          <mxGeometry width="50" height="50" relative="1" as="geometry">
            <mxPoint x="420" y="400" as="sourcePoint" />
            <mxPoint x="510" y="340" as="targetPoint" />
          </mxGeometry>
        </mxCell>
        <mxCell id="K8MvuFTA2SwjXxJ1fh8y-3" value="" style="endArrow=none;html=1;rounded=0;exitX=1;exitY=0.5;exitDx=0;exitDy=0;entryX=-0.007;entryY=0.189;entryDx=0;entryDy=0;entryPerimeter=0;" parent="1" source="1otFdiM4tNjmoqmFSZvJ-71" target="C-vyLk0tnHw3VtMMgP7b-3" edge="1">
          <mxGeometry width="50" height="50" relative="1" as="geometry">
            <mxPoint x="465" y="285" as="sourcePoint" />
            <mxPoint x="515" y="235" as="targetPoint" />
          </mxGeometry>
        </mxCell>
      </root>
    </mxGraphModel>
  </diagram>
  <diagram id="TrNxNCzsHDW-AKLPw4_h" name="Page-2">
    <mxGraphModel dx="1580" dy="924" grid="1" gridSize="10" guides="1" tooltips="1" connect="1" arrows="1" fold="1" page="1" pageScale="1" pageWidth="827" pageHeight="1169" math="0" shadow="0">
      <root>
        <mxCell id="VbQhaL1l99yiaWjRSPSI-0" />
        <mxCell id="VbQhaL1l99yiaWjRSPSI-1" parent="VbQhaL1l99yiaWjRSPSI-0" />
        <mxCell id="MAqcaL8bslTjYzWFM4oK-0" value="Doctor" style="shape=table;startSize=30;container=1;collapsible=1;childLayout=tableLayout;fixedRows=1;rowLines=0;fontStyle=1;align=center;resizeLast=1;" vertex="1" parent="VbQhaL1l99yiaWjRSPSI-1">
          <mxGeometry x="566.5" y="450" width="240" height="140" as="geometry" />
        </mxCell>
        <mxCell id="MAqcaL8bslTjYzWFM4oK-1" value="" style="shape=partialRectangle;collapsible=0;dropTarget=0;pointerEvents=0;fillColor=none;points=[[0,0.5],[1,0.5]];portConstraint=eastwest;top=0;left=0;right=0;bottom=1;" vertex="1" parent="MAqcaL8bslTjYzWFM4oK-0">
          <mxGeometry y="30" width="240" height="30" as="geometry" />
        </mxCell>
        <mxCell id="MAqcaL8bslTjYzWFM4oK-2" value="PK" style="shape=partialRectangle;overflow=hidden;connectable=0;fillColor=none;top=0;left=0;bottom=0;right=0;fontStyle=1;" vertex="1" parent="MAqcaL8bslTjYzWFM4oK-1">
          <mxGeometry width="30" height="30" as="geometry">
            <mxRectangle width="30" height="30" as="alternateBounds" />
          </mxGeometry>
        </mxCell>
        <mxCell id="MAqcaL8bslTjYzWFM4oK-3" value="d_id varchar(10) NOT NULL " style="shape=partialRectangle;overflow=hidden;connectable=0;fillColor=none;top=0;left=0;bottom=0;right=0;align=left;spacingLeft=6;fontStyle=5;" vertex="1" parent="MAqcaL8bslTjYzWFM4oK-1">
          <mxGeometry x="30" width="210" height="30" as="geometry">
            <mxRectangle width="210" height="30" as="alternateBounds" />
          </mxGeometry>
        </mxCell>
        <mxCell id="MAqcaL8bslTjYzWFM4oK-4" value="" style="shape=partialRectangle;collapsible=0;dropTarget=0;pointerEvents=0;fillColor=none;points=[[0,0.5],[1,0.5]];portConstraint=eastwest;top=0;left=0;right=0;bottom=0;" vertex="1" parent="MAqcaL8bslTjYzWFM4oK-0">
          <mxGeometry y="60" width="240" height="30" as="geometry" />
        </mxCell>
        <mxCell id="MAqcaL8bslTjYzWFM4oK-5" value="" style="shape=partialRectangle;overflow=hidden;connectable=0;fillColor=none;top=0;left=0;bottom=0;right=0;" vertex="1" parent="MAqcaL8bslTjYzWFM4oK-4">
          <mxGeometry width="30" height="30" as="geometry">
            <mxRectangle width="30" height="30" as="alternateBounds" />
          </mxGeometry>
        </mxCell>
        <mxCell id="MAqcaL8bslTjYzWFM4oK-6" value="" style="shape=partialRectangle;overflow=hidden;connectable=0;fillColor=none;top=0;left=0;bottom=0;right=0;align=left;spacingLeft=6;" vertex="1" parent="MAqcaL8bslTjYzWFM4oK-4">
          <mxGeometry x="30" width="210" height="30" as="geometry">
            <mxRectangle width="210" height="30" as="alternateBounds" />
          </mxGeometry>
        </mxCell>
        <mxCell id="MAqcaL8bslTjYzWFM4oK-7" value="" style="shape=partialRectangle;collapsible=0;dropTarget=0;pointerEvents=0;fillColor=none;points=[[0,0.5],[1,0.5]];portConstraint=eastwest;top=0;left=0;right=0;bottom=0;" vertex="1" parent="MAqcaL8bslTjYzWFM4oK-0">
          <mxGeometry y="90" width="240" height="30" as="geometry" />
        </mxCell>
        <mxCell id="MAqcaL8bslTjYzWFM4oK-8" value="" style="shape=partialRectangle;overflow=hidden;connectable=0;fillColor=none;top=0;left=0;bottom=0;right=0;" vertex="1" parent="MAqcaL8bslTjYzWFM4oK-7">
          <mxGeometry width="30" height="30" as="geometry">
            <mxRectangle width="30" height="30" as="alternateBounds" />
          </mxGeometry>
        </mxCell>
        <mxCell id="MAqcaL8bslTjYzWFM4oK-9" value="" style="shape=partialRectangle;overflow=hidden;connectable=0;fillColor=none;top=0;left=0;bottom=0;right=0;align=left;spacingLeft=6;" vertex="1" parent="MAqcaL8bslTjYzWFM4oK-7">
          <mxGeometry x="30" width="210" height="30" as="geometry">
            <mxRectangle width="210" height="30" as="alternateBounds" />
          </mxGeometry>
        </mxCell>
        <mxCell id="MAqcaL8bslTjYzWFM4oK-10" value="Pharmacy" style="shape=table;startSize=30;container=1;collapsible=1;childLayout=tableLayout;fixedRows=1;rowLines=0;fontStyle=1;align=center;resizeLast=1;" vertex="1" parent="VbQhaL1l99yiaWjRSPSI-1">
          <mxGeometry x="541" y="710" width="261" height="160" as="geometry" />
        </mxCell>
        <mxCell id="MAqcaL8bslTjYzWFM4oK-11" value="" style="shape=partialRectangle;collapsible=0;dropTarget=0;pointerEvents=0;fillColor=none;points=[[0,0.5],[1,0.5]];portConstraint=eastwest;top=0;left=0;right=0;bottom=1;" vertex="1" parent="MAqcaL8bslTjYzWFM4oK-10">
          <mxGeometry y="30" width="261" height="30" as="geometry" />
        </mxCell>
        <mxCell id="MAqcaL8bslTjYzWFM4oK-12" value="PK" style="shape=partialRectangle;overflow=hidden;connectable=0;fillColor=none;top=0;left=0;bottom=0;right=0;fontStyle=1;" vertex="1" parent="MAqcaL8bslTjYzWFM4oK-11">
          <mxGeometry width="30" height="30" as="geometry">
            <mxRectangle width="30" height="30" as="alternateBounds" />
          </mxGeometry>
        </mxCell>
        <mxCell id="MAqcaL8bslTjYzWFM4oK-13" value="h_id varchar(10) NOT NULL " style="shape=partialRectangle;overflow=hidden;connectable=0;fillColor=none;top=0;left=0;bottom=0;right=0;align=left;spacingLeft=6;fontStyle=5;" vertex="1" parent="MAqcaL8bslTjYzWFM4oK-11">
          <mxGeometry x="30" width="231" height="30" as="geometry">
            <mxRectangle width="231" height="30" as="alternateBounds" />
          </mxGeometry>
        </mxCell>
        <mxCell id="MAqcaL8bslTjYzWFM4oK-14" value="" style="shape=partialRectangle;collapsible=0;dropTarget=0;pointerEvents=0;fillColor=none;points=[[0,0.5],[1,0.5]];portConstraint=eastwest;top=0;left=0;right=0;bottom=0;" vertex="1" parent="MAqcaL8bslTjYzWFM4oK-10">
          <mxGeometry y="60" width="261" height="30" as="geometry" />
        </mxCell>
        <mxCell id="MAqcaL8bslTjYzWFM4oK-15" value="" style="shape=partialRectangle;overflow=hidden;connectable=0;fillColor=none;top=0;left=0;bottom=0;right=0;" vertex="1" parent="MAqcaL8bslTjYzWFM4oK-14">
          <mxGeometry width="30" height="30" as="geometry">
            <mxRectangle width="30" height="30" as="alternateBounds" />
          </mxGeometry>
        </mxCell>
        <mxCell id="MAqcaL8bslTjYzWFM4oK-16" value="pharmacy_name varchar(50) NOT NULL" style="shape=partialRectangle;overflow=hidden;connectable=0;fillColor=none;top=0;left=0;bottom=0;right=0;align=left;spacingLeft=6;" vertex="1" parent="MAqcaL8bslTjYzWFM4oK-14">
          <mxGeometry x="30" width="231" height="30" as="geometry">
            <mxRectangle width="231" height="30" as="alternateBounds" />
          </mxGeometry>
        </mxCell>
        <mxCell id="MAqcaL8bslTjYzWFM4oK-17" value="" style="shape=partialRectangle;collapsible=0;dropTarget=0;pointerEvents=0;fillColor=none;points=[[0,0.5],[1,0.5]];portConstraint=eastwest;top=0;left=0;right=0;bottom=0;" vertex="1" parent="MAqcaL8bslTjYzWFM4oK-10">
          <mxGeometry y="90" width="261" height="30" as="geometry" />
        </mxCell>
        <mxCell id="MAqcaL8bslTjYzWFM4oK-18" value="" style="shape=partialRectangle;overflow=hidden;connectable=0;fillColor=none;top=0;left=0;bottom=0;right=0;" vertex="1" parent="MAqcaL8bslTjYzWFM4oK-17">
          <mxGeometry width="30" height="30" as="geometry">
            <mxRectangle width="30" height="30" as="alternateBounds" />
          </mxGeometry>
        </mxCell>
        <mxCell id="MAqcaL8bslTjYzWFM4oK-19" value="location varchar(100) NOT NULL" style="shape=partialRectangle;overflow=hidden;connectable=0;fillColor=none;top=0;left=0;bottom=0;right=0;align=left;spacingLeft=6;" vertex="1" parent="MAqcaL8bslTjYzWFM4oK-17">
          <mxGeometry x="30" width="231" height="30" as="geometry">
            <mxRectangle width="231" height="30" as="alternateBounds" />
          </mxGeometry>
        </mxCell>
        <mxCell id="MAqcaL8bslTjYzWFM4oK-20" value="Patient" style="shape=table;startSize=30;container=1;collapsible=1;childLayout=tableLayout;fixedRows=1;rowLines=0;fontStyle=1;align=center;resizeLast=1;" vertex="1" parent="VbQhaL1l99yiaWjRSPSI-1">
          <mxGeometry x="30" y="330" width="261" height="140" as="geometry" />
        </mxCell>
        <mxCell id="MAqcaL8bslTjYzWFM4oK-21" value="" style="shape=partialRectangle;collapsible=0;dropTarget=0;pointerEvents=0;fillColor=none;points=[[0,0.5],[1,0.5]];portConstraint=eastwest;top=0;left=0;right=0;bottom=1;" vertex="1" parent="MAqcaL8bslTjYzWFM4oK-20">
          <mxGeometry y="30" width="261" height="30" as="geometry" />
        </mxCell>
        <mxCell id="MAqcaL8bslTjYzWFM4oK-22" value="PK" style="shape=partialRectangle;overflow=hidden;connectable=0;fillColor=none;top=0;left=0;bottom=0;right=0;fontStyle=1;" vertex="1" parent="MAqcaL8bslTjYzWFM4oK-21">
          <mxGeometry width="30" height="30" as="geometry">
            <mxRectangle width="30" height="30" as="alternateBounds" />
          </mxGeometry>
        </mxCell>
        <mxCell id="MAqcaL8bslTjYzWFM4oK-23" value="p_id varchar(10) NOT NULL " style="shape=partialRectangle;overflow=hidden;connectable=0;fillColor=none;top=0;left=0;bottom=0;right=0;align=left;spacingLeft=6;fontStyle=5;" vertex="1" parent="MAqcaL8bslTjYzWFM4oK-21">
          <mxGeometry x="30" width="231" height="30" as="geometry">
            <mxRectangle width="231" height="30" as="alternateBounds" />
          </mxGeometry>
        </mxCell>
        <mxCell id="MAqcaL8bslTjYzWFM4oK-24" value="" style="shape=partialRectangle;collapsible=0;dropTarget=0;pointerEvents=0;fillColor=none;points=[[0,0.5],[1,0.5]];portConstraint=eastwest;top=0;left=0;right=0;bottom=0;" vertex="1" parent="MAqcaL8bslTjYzWFM4oK-20">
          <mxGeometry y="60" width="261" height="30" as="geometry" />
        </mxCell>
        <mxCell id="MAqcaL8bslTjYzWFM4oK-25" value="" style="shape=partialRectangle;overflow=hidden;connectable=0;fillColor=none;top=0;left=0;bottom=0;right=0;" vertex="1" parent="MAqcaL8bslTjYzWFM4oK-24">
          <mxGeometry width="30" height="30" as="geometry">
            <mxRectangle width="30" height="30" as="alternateBounds" />
          </mxGeometry>
        </mxCell>
        <mxCell id="MAqcaL8bslTjYzWFM4oK-26" value="patient_name varchar(50) NOT NULL" style="shape=partialRectangle;overflow=hidden;connectable=0;fillColor=none;top=0;left=0;bottom=0;right=0;align=left;spacingLeft=6;" vertex="1" parent="MAqcaL8bslTjYzWFM4oK-24">
          <mxGeometry x="30" width="231" height="30" as="geometry">
            <mxRectangle width="231" height="30" as="alternateBounds" />
          </mxGeometry>
        </mxCell>
        <mxCell id="MAqcaL8bslTjYzWFM4oK-27" value="patient_address varchar(100) NOT NULL" style="shape=partialRectangle;overflow=hidden;connectable=0;fillColor=none;top=0;left=0;bottom=0;right=0;align=left;spacingLeft=6;" vertex="1" parent="VbQhaL1l99yiaWjRSPSI-1">
          <mxGeometry x="60" y="410" width="241" height="30" as="geometry" />
        </mxCell>
        <mxCell id="MAqcaL8bslTjYzWFM4oK-28" value="patient_age int NOT NULL" style="shape=partialRectangle;overflow=hidden;connectable=0;fillColor=none;top=0;left=0;bottom=0;right=0;align=left;spacingLeft=6;" vertex="1" parent="VbQhaL1l99yiaWjRSPSI-1">
          <mxGeometry x="60" y="430" width="220" height="30" as="geometry" />
        </mxCell>
        <mxCell id="MAqcaL8bslTjYzWFM4oK-29" value="doctor_name varchar(50) NOT NULL" style="shape=partialRectangle;overflow=hidden;connectable=0;fillColor=none;top=0;left=0;bottom=0;right=0;align=left;spacingLeft=6;" vertex="1" parent="VbQhaL1l99yiaWjRSPSI-1">
          <mxGeometry x="592" y="505" width="210" height="30" as="geometry">
            <mxRectangle width="210" height="30" as="alternateBounds" />
          </mxGeometry>
        </mxCell>
        <mxCell id="MAqcaL8bslTjYzWFM4oK-30" value="specialty varchar(50) NOT NULL" style="shape=partialRectangle;overflow=hidden;connectable=0;fillColor=none;top=0;left=0;bottom=0;right=0;align=left;spacingLeft=6;" vertex="1" parent="VbQhaL1l99yiaWjRSPSI-1">
          <mxGeometry x="592" y="530" width="210" height="30" as="geometry">
            <mxRectangle width="210" height="30" as="alternateBounds" />
          </mxGeometry>
        </mxCell>
        <mxCell id="MAqcaL8bslTjYzWFM4oK-31" value="experience_years int " style="shape=partialRectangle;overflow=hidden;connectable=0;fillColor=none;top=0;left=0;bottom=0;right=0;align=left;spacingLeft=6;" vertex="1" parent="VbQhaL1l99yiaWjRSPSI-1">
          <mxGeometry x="592" y="555" width="210" height="30" as="geometry">
            <mxRectangle width="210" height="30" as="alternateBounds" />
          </mxGeometry>
        </mxCell>
        <mxCell id="MAqcaL8bslTjYzWFM4oK-32" value="Drug" style="shape=table;startSize=30;container=1;collapsible=1;childLayout=tableLayout;fixedRows=1;rowLines=0;fontStyle=1;align=center;resizeLast=1;" vertex="1" parent="VbQhaL1l99yiaWjRSPSI-1">
          <mxGeometry x="40" y="710" width="250" height="130" as="geometry" />
        </mxCell>
        <mxCell id="MAqcaL8bslTjYzWFM4oK-33" value="" style="shape=partialRectangle;collapsible=0;dropTarget=0;pointerEvents=0;fillColor=none;points=[[0,0.5],[1,0.5]];portConstraint=eastwest;top=0;left=0;right=0;bottom=1;" vertex="1" parent="MAqcaL8bslTjYzWFM4oK-32">
          <mxGeometry y="30" width="250" height="30" as="geometry" />
        </mxCell>
        <mxCell id="MAqcaL8bslTjYzWFM4oK-34" value="PK" style="shape=partialRectangle;overflow=hidden;connectable=0;fillColor=none;top=0;left=0;bottom=0;right=0;fontStyle=1;" vertex="1" parent="MAqcaL8bslTjYzWFM4oK-33">
          <mxGeometry width="30" height="30" as="geometry">
            <mxRectangle width="30" height="30" as="alternateBounds" />
          </mxGeometry>
        </mxCell>
        <mxCell id="MAqcaL8bslTjYzWFM4oK-35" value="m_id varchar(10) NOT NULL " style="shape=partialRectangle;overflow=hidden;connectable=0;fillColor=none;top=0;left=0;bottom=0;right=0;align=left;spacingLeft=6;fontStyle=5;" vertex="1" parent="MAqcaL8bslTjYzWFM4oK-33">
          <mxGeometry x="30" width="220" height="30" as="geometry">
            <mxRectangle width="220" height="30" as="alternateBounds" />
          </mxGeometry>
        </mxCell>
        <mxCell id="MAqcaL8bslTjYzWFM4oK-36" value="" style="shape=partialRectangle;collapsible=0;dropTarget=0;pointerEvents=0;fillColor=none;points=[[0,0.5],[1,0.5]];portConstraint=eastwest;top=0;left=0;right=0;bottom=0;" vertex="1" parent="MAqcaL8bslTjYzWFM4oK-32">
          <mxGeometry y="60" width="250" height="30" as="geometry" />
        </mxCell>
        <mxCell id="MAqcaL8bslTjYzWFM4oK-37" value="" style="shape=partialRectangle;overflow=hidden;connectable=0;fillColor=none;top=0;left=0;bottom=0;right=0;" vertex="1" parent="MAqcaL8bslTjYzWFM4oK-36">
          <mxGeometry width="30" height="30" as="geometry">
            <mxRectangle width="30" height="30" as="alternateBounds" />
          </mxGeometry>
        </mxCell>
        <mxCell id="MAqcaL8bslTjYzWFM4oK-38" value="drug_name varchar(50) NOT NULL" style="shape=partialRectangle;overflow=hidden;connectable=0;fillColor=none;top=0;left=0;bottom=0;right=0;align=left;spacingLeft=6;" vertex="1" parent="MAqcaL8bslTjYzWFM4oK-36">
          <mxGeometry x="30" width="220" height="30" as="geometry">
            <mxRectangle width="220" height="30" as="alternateBounds" />
          </mxGeometry>
        </mxCell>
        <mxCell id="MAqcaL8bslTjYzWFM4oK-39" value="" style="shape=partialRectangle;collapsible=0;dropTarget=0;pointerEvents=0;fillColor=none;points=[[0,0.5],[1,0.5]];portConstraint=eastwest;top=0;left=0;right=0;bottom=0;" vertex="1" parent="MAqcaL8bslTjYzWFM4oK-32">
          <mxGeometry y="90" width="250" height="30" as="geometry" />
        </mxCell>
        <mxCell id="MAqcaL8bslTjYzWFM4oK-40" value="" style="shape=partialRectangle;overflow=hidden;connectable=0;fillColor=none;top=0;left=0;bottom=0;right=0;" vertex="1" parent="MAqcaL8bslTjYzWFM4oK-39">
          <mxGeometry width="30" height="30" as="geometry">
            <mxRectangle width="30" height="30" as="alternateBounds" />
          </mxGeometry>
        </mxCell>
        <mxCell id="MAqcaL8bslTjYzWFM4oK-41" value="formula varchar(100) " style="shape=partialRectangle;overflow=hidden;connectable=0;fillColor=none;top=0;left=0;bottom=0;right=0;align=left;spacingLeft=6;" vertex="1" parent="MAqcaL8bslTjYzWFM4oK-39">
          <mxGeometry x="30" width="220" height="30" as="geometry">
            <mxRectangle width="220" height="30" as="alternateBounds" />
          </mxGeometry>
        </mxCell>
        <mxCell id="MAqcaL8bslTjYzWFM4oK-46" value="" style="shape=link;html=1;rounded=0;width=4.814814814814813;exitX=0.905;exitY=-0.018;exitDx=0;exitDy=0;exitPerimeter=0;" edge="1" parent="VbQhaL1l99yiaWjRSPSI-1" source="MAqcaL8bslTjYzWFM4oK-141">
          <mxGeometry relative="1" as="geometry">
            <mxPoint x="475.78" y="752.1700000000002" as="sourcePoint" />
            <mxPoint x="497" y="760" as="targetPoint" />
          </mxGeometry>
        </mxCell>
        <mxCell id="MAqcaL8bslTjYzWFM4oK-47" value="" style="endArrow=none;html=1;rounded=0;entryX=0.218;entryY=-0.004;entryDx=0;entryDy=0;entryPerimeter=0;" edge="1" parent="VbQhaL1l99yiaWjRSPSI-1" target="MAqcaL8bslTjYzWFM4oK-141">
          <mxGeometry relative="1" as="geometry">
            <mxPoint x="290" y="760" as="sourcePoint" />
            <mxPoint x="360" y="760" as="targetPoint" />
            <Array as="points">
              <mxPoint x="320" y="759.63" />
            </Array>
          </mxGeometry>
        </mxCell>
        <mxCell id="MAqcaL8bslTjYzWFM4oK-50" value="" style="endArrow=none;html=1;rounded=0;" edge="1" parent="VbQhaL1l99yiaWjRSPSI-1">
          <mxGeometry relative="1" as="geometry">
            <mxPoint x="10" y="520" as="sourcePoint" />
            <mxPoint x="10" y="380" as="targetPoint" />
          </mxGeometry>
        </mxCell>
        <mxCell id="MAqcaL8bslTjYzWFM4oK-51" value="" style="endArrow=none;html=1;rounded=0;" edge="1" parent="VbQhaL1l99yiaWjRSPSI-1">
          <mxGeometry relative="1" as="geometry">
            <mxPoint x="10" y="380" as="sourcePoint" />
            <mxPoint x="30" y="380" as="targetPoint" />
            <Array as="points">
              <mxPoint x="10" y="380" />
            </Array>
          </mxGeometry>
        </mxCell>
        <mxCell id="MAqcaL8bslTjYzWFM4oK-54" value="" style="endArrow=none;html=1;rounded=0;" edge="1" parent="VbQhaL1l99yiaWjRSPSI-1">
          <mxGeometry relative="1" as="geometry">
            <mxPoint x="31" y="690" as="sourcePoint" />
            <mxPoint x="30" y="760" as="targetPoint" />
          </mxGeometry>
        </mxCell>
        <mxCell id="MAqcaL8bslTjYzWFM4oK-55" value="" style="endArrow=none;html=1;rounded=0;" edge="1" parent="VbQhaL1l99yiaWjRSPSI-1">
          <mxGeometry relative="1" as="geometry">
            <mxPoint x="30" y="760" as="sourcePoint" />
            <mxPoint x="40" y="759.5699999999999" as="targetPoint" />
          </mxGeometry>
        </mxCell>
        <mxCell id="MAqcaL8bslTjYzWFM4oK-56" value="" style="endArrow=none;html=1;rounded=0;exitX=1.011;exitY=0.063;exitDx=0;exitDy=0;exitPerimeter=0;entryX=-0.009;entryY=-0.018;entryDx=0;entryDy=0;entryPerimeter=0;" edge="1" parent="VbQhaL1l99yiaWjRSPSI-1" source="MAqcaL8bslTjYzWFM4oK-104" target="MAqcaL8bslTjYzWFM4oK-4">
          <mxGeometry relative="1" as="geometry">
            <mxPoint x="311" y="520" as="sourcePoint" />
            <mxPoint x="500" y="380" as="targetPoint" />
          </mxGeometry>
        </mxCell>
        <mxCell id="MAqcaL8bslTjYzWFM4oK-69" value="" style="endArrow=none;html=1;rounded=0;exitX=1.007;exitY=0.227;exitDx=0;exitDy=0;exitPerimeter=0;entryX=0.006;entryY=0.958;entryDx=0;entryDy=0;entryPerimeter=0;" edge="1" parent="VbQhaL1l99yiaWjRSPSI-1" source="MAqcaL8bslTjYzWFM4oK-21" target="MAqcaL8bslTjYzWFM4oK-166">
          <mxGeometry relative="1" as="geometry">
            <mxPoint x="157.5" y="300" as="sourcePoint" />
            <mxPoint x="293" y="260" as="targetPoint" />
          </mxGeometry>
        </mxCell>
        <mxCell id="MAqcaL8bslTjYzWFM4oK-71" value="" style="endArrow=none;html=1;rounded=0;exitX=1.009;exitY=1;exitDx=0;exitDy=0;exitPerimeter=0;entryX=0.25;entryY=0;entryDx=0;entryDy=0;" edge="1" parent="VbQhaL1l99yiaWjRSPSI-1" source="MAqcaL8bslTjYzWFM4oK-166" target="MAqcaL8bslTjYzWFM4oK-0">
          <mxGeometry width="50" height="50" relative="1" as="geometry">
            <mxPoint x="415" y="300" as="sourcePoint" />
            <mxPoint x="610" y="380" as="targetPoint" />
          </mxGeometry>
        </mxCell>
        <mxCell id="MAqcaL8bslTjYzWFM4oK-74" value="&lt;span style=&quot;line-height: 107%&quot;&gt;&lt;font style=&quot;font-size: 12px&quot;&gt;supervisor_id varchar(10) NOT NULL&lt;/font&gt;&lt;/span&gt;" style="text;whiteSpace=wrap;html=1;" vertex="1" parent="VbQhaL1l99yiaWjRSPSI-1">
          <mxGeometry x="571.5" y="830" width="230" height="40" as="geometry" />
        </mxCell>
        <mxCell id="MAqcaL8bslTjYzWFM4oK-104" value="Prescribes" style="shape=table;startSize=30;container=1;collapsible=1;childLayout=tableLayout;fixedRows=1;rowLines=0;fontStyle=1;align=center;resizeLast=1;fontFamily=Helvetica;fontSize=12;" vertex="1" parent="VbQhaL1l99yiaWjRSPSI-1">
          <mxGeometry x="21" y="500" width="270" height="190" as="geometry" />
        </mxCell>
        <mxCell id="MAqcaL8bslTjYzWFM4oK-105" value="" style="shape=tableRow;horizontal=0;startSize=0;swimlaneHead=0;swimlaneBody=0;fillColor=none;collapsible=0;dropTarget=0;points=[[0,0.5],[1,0.5]];portConstraint=eastwest;top=0;left=0;right=0;bottom=0;fontFamily=Helvetica;fontSize=12;" vertex="1" parent="MAqcaL8bslTjYzWFM4oK-104">
          <mxGeometry y="30" width="270" height="30" as="geometry" />
        </mxCell>
        <mxCell id="MAqcaL8bslTjYzWFM4oK-106" value="PK,FK1" style="shape=partialRectangle;connectable=0;fillColor=none;top=0;left=0;bottom=0;right=0;fontStyle=1;overflow=hidden;fontFamily=Helvetica;fontSize=12;" vertex="1" parent="MAqcaL8bslTjYzWFM4oK-105">
          <mxGeometry width="60" height="30" as="geometry">
            <mxRectangle width="60" height="30" as="alternateBounds" />
          </mxGeometry>
        </mxCell>
        <mxCell id="MAqcaL8bslTjYzWFM4oK-107" value="p_id varchar(10) NOT NULL" style="shape=partialRectangle;connectable=0;fillColor=none;top=0;left=0;bottom=0;right=0;align=left;spacingLeft=6;fontStyle=5;overflow=hidden;fontFamily=Helvetica;fontSize=12;" vertex="1" parent="MAqcaL8bslTjYzWFM4oK-105">
          <mxGeometry x="60" width="210" height="30" as="geometry">
            <mxRectangle width="210" height="30" as="alternateBounds" />
          </mxGeometry>
        </mxCell>
        <mxCell id="MAqcaL8bslTjYzWFM4oK-111" value="" style="shape=tableRow;horizontal=0;startSize=0;swimlaneHead=0;swimlaneBody=0;fillColor=none;collapsible=0;dropTarget=0;points=[[0,0.5],[1,0.5]];portConstraint=eastwest;top=0;left=0;right=0;bottom=0;fontFamily=Helvetica;fontSize=12;" vertex="1" parent="MAqcaL8bslTjYzWFM4oK-104">
          <mxGeometry y="60" width="270" height="30" as="geometry" />
        </mxCell>
        <mxCell id="MAqcaL8bslTjYzWFM4oK-112" value="" style="shape=partialRectangle;connectable=0;fillColor=none;top=0;left=0;bottom=0;right=0;editable=1;overflow=hidden;fontFamily=Helvetica;fontSize=12;" vertex="1" parent="MAqcaL8bslTjYzWFM4oK-111">
          <mxGeometry width="60" height="30" as="geometry">
            <mxRectangle width="60" height="30" as="alternateBounds" />
          </mxGeometry>
        </mxCell>
        <mxCell id="MAqcaL8bslTjYzWFM4oK-113" value="d_id varchar(10) NOT NULL" style="shape=partialRectangle;connectable=0;fillColor=none;top=0;left=0;bottom=0;right=0;align=left;spacingLeft=6;overflow=hidden;fontFamily=Helvetica;fontSize=12;fontStyle=5" vertex="1" parent="MAqcaL8bslTjYzWFM4oK-111">
          <mxGeometry x="60" width="210" height="30" as="geometry">
            <mxRectangle width="210" height="30" as="alternateBounds" />
          </mxGeometry>
        </mxCell>
        <mxCell id="MAqcaL8bslTjYzWFM4oK-114" value="" style="shape=tableRow;horizontal=0;startSize=0;swimlaneHead=0;swimlaneBody=0;fillColor=none;collapsible=0;dropTarget=0;points=[[0,0.5],[1,0.5]];portConstraint=eastwest;top=0;left=0;right=0;bottom=0;fontFamily=Helvetica;fontSize=12;" vertex="1" parent="MAqcaL8bslTjYzWFM4oK-104">
          <mxGeometry y="90" width="270" height="30" as="geometry" />
        </mxCell>
        <mxCell id="MAqcaL8bslTjYzWFM4oK-115" value="" style="shape=partialRectangle;connectable=0;fillColor=none;top=0;left=0;bottom=0;right=0;editable=1;overflow=hidden;fontFamily=Helvetica;fontSize=12;" vertex="1" parent="MAqcaL8bslTjYzWFM4oK-114">
          <mxGeometry width="60" height="30" as="geometry">
            <mxRectangle width="60" height="30" as="alternateBounds" />
          </mxGeometry>
        </mxCell>
        <mxCell id="MAqcaL8bslTjYzWFM4oK-116" value="m_id varchar(10) NOT NULL" style="shape=partialRectangle;connectable=0;fillColor=none;top=0;left=0;bottom=0;right=0;align=left;spacingLeft=6;overflow=hidden;fontFamily=Helvetica;fontSize=12;fontStyle=5" vertex="1" parent="MAqcaL8bslTjYzWFM4oK-114">
          <mxGeometry x="60" width="210" height="30" as="geometry">
            <mxRectangle width="210" height="30" as="alternateBounds" />
          </mxGeometry>
        </mxCell>
        <mxCell id="MAqcaL8bslTjYzWFM4oK-130" value="" style="shape=tableRow;horizontal=0;startSize=0;swimlaneHead=0;swimlaneBody=0;fillColor=none;collapsible=0;dropTarget=0;points=[[0,0.5],[1,0.5]];portConstraint=eastwest;top=0;left=0;right=0;bottom=0;fontFamily=Helvetica;fontSize=12;" vertex="1" parent="VbQhaL1l99yiaWjRSPSI-1">
          <mxGeometry x="22" y="650" width="270" height="30" as="geometry" />
        </mxCell>
        <mxCell id="MAqcaL8bslTjYzWFM4oK-131" value="" style="shape=partialRectangle;connectable=0;fillColor=none;top=0;left=0;bottom=0;right=0;editable=1;overflow=hidden;fontFamily=Helvetica;fontSize=12;" vertex="1" parent="MAqcaL8bslTjYzWFM4oK-130">
          <mxGeometry width="60" height="30" as="geometry">
            <mxRectangle width="60" height="30" as="alternateBounds" />
          </mxGeometry>
        </mxCell>
        <mxCell id="MAqcaL8bslTjYzWFM4oK-133" value="" style="shape=tableRow;horizontal=0;startSize=0;swimlaneHead=0;swimlaneBody=0;fillColor=none;collapsible=0;dropTarget=0;points=[[0,0.5],[1,0.5]];portConstraint=eastwest;top=0;left=0;right=0;bottom=0;fontFamily=Helvetica;fontSize=12;" vertex="1" parent="VbQhaL1l99yiaWjRSPSI-1">
          <mxGeometry x="32" y="600" width="270" height="30" as="geometry" />
        </mxCell>
        <mxCell id="MAqcaL8bslTjYzWFM4oK-134" value="" style="shape=partialRectangle;connectable=0;fillColor=none;top=0;left=0;bottom=0;right=0;editable=1;overflow=hidden;fontFamily=Helvetica;fontSize=12;" vertex="1" parent="MAqcaL8bslTjYzWFM4oK-133">
          <mxGeometry width="60" height="30" as="geometry">
            <mxRectangle width="60" height="30" as="alternateBounds" />
          </mxGeometry>
        </mxCell>
        <mxCell id="MAqcaL8bslTjYzWFM4oK-132" value="prescription_date date NOT NULL" style="shape=partialRectangle;connectable=0;fillColor=none;top=0;left=0;bottom=0;right=0;align=left;spacingLeft=6;overflow=hidden;fontFamily=Helvetica;fontSize=12;fontStyle=5" vertex="1" parent="VbQhaL1l99yiaWjRSPSI-1">
          <mxGeometry x="81" y="620" width="210" height="30" as="geometry">
            <mxRectangle width="210" height="30" as="alternateBounds" />
          </mxGeometry>
        </mxCell>
        <mxCell id="MAqcaL8bslTjYzWFM4oK-135" value="description varchar(2000)" style="shape=partialRectangle;connectable=0;fillColor=none;top=0;left=0;bottom=0;right=0;align=left;spacingLeft=6;overflow=hidden;fontFamily=Helvetica;fontSize=12;" vertex="1" parent="VbQhaL1l99yiaWjRSPSI-1">
          <mxGeometry x="80" y="660" width="210" height="30" as="geometry">
            <mxRectangle width="210" height="30" as="alternateBounds" />
          </mxGeometry>
        </mxCell>
        <mxCell id="MAqcaL8bslTjYzWFM4oK-136" value="PK,FK2" style="shape=partialRectangle;connectable=0;fillColor=none;top=0;left=0;bottom=0;right=0;fontStyle=1;overflow=hidden;fontFamily=Helvetica;fontSize=12;" vertex="1" parent="VbQhaL1l99yiaWjRSPSI-1">
          <mxGeometry x="22" y="560" width="60" height="30" as="geometry">
            <mxRectangle width="60" height="30" as="alternateBounds" />
          </mxGeometry>
        </mxCell>
        <mxCell id="MAqcaL8bslTjYzWFM4oK-137" value="PK,FK3" style="shape=partialRectangle;connectable=0;fillColor=none;top=0;left=0;bottom=0;right=0;fontStyle=1;overflow=hidden;fontFamily=Helvetica;fontSize=12;" vertex="1" parent="VbQhaL1l99yiaWjRSPSI-1">
          <mxGeometry x="21" y="590" width="60" height="30" as="geometry">
            <mxRectangle width="60" height="30" as="alternateBounds" />
          </mxGeometry>
        </mxCell>
        <mxCell id="MAqcaL8bslTjYzWFM4oK-138" value="PK" style="shape=partialRectangle;connectable=0;fillColor=none;top=0;left=0;bottom=0;right=0;fontStyle=1;overflow=hidden;fontFamily=Helvetica;fontSize=12;" vertex="1" parent="VbQhaL1l99yiaWjRSPSI-1">
          <mxGeometry x="11" y="620" width="60" height="30" as="geometry">
            <mxRectangle width="60" height="30" as="alternateBounds" />
          </mxGeometry>
        </mxCell>
        <mxCell id="MAqcaL8bslTjYzWFM4oK-139" value="" style="endArrow=none;html=1;rounded=0;fontFamily=Helvetica;fontSize=12;" edge="1" parent="VbQhaL1l99yiaWjRSPSI-1">
          <mxGeometry width="50" height="50" relative="1" as="geometry">
            <mxPoint x="21" y="650" as="sourcePoint" />
            <mxPoint x="291" y="649" as="targetPoint" />
          </mxGeometry>
        </mxCell>
        <mxCell id="MAqcaL8bslTjYzWFM4oK-140" value="" style="endArrow=none;html=1;rounded=0;fontFamily=Helvetica;fontSize=12;" edge="1" parent="VbQhaL1l99yiaWjRSPSI-1">
          <mxGeometry width="50" height="50" relative="1" as="geometry">
            <mxPoint x="81" y="650" as="sourcePoint" />
            <mxPoint x="81" y="610" as="targetPoint" />
          </mxGeometry>
        </mxCell>
        <mxCell id="MAqcaL8bslTjYzWFM4oK-141" value="sells" style="shape=table;startSize=30;container=1;collapsible=1;childLayout=tableLayout;fixedRows=1;rowLines=0;fontStyle=1;align=center;resizeLast=1;fontFamily=Helvetica;fontSize=12;" vertex="1" parent="VbQhaL1l99yiaWjRSPSI-1">
          <mxGeometry x="261" y="860" width="261" height="135" as="geometry" />
        </mxCell>
        <mxCell id="MAqcaL8bslTjYzWFM4oK-142" value="" style="shape=tableRow;horizontal=0;startSize=0;swimlaneHead=0;swimlaneBody=0;fillColor=none;collapsible=0;dropTarget=0;points=[[0,0.5],[1,0.5]];portConstraint=eastwest;top=0;left=0;right=0;bottom=0;fontFamily=Helvetica;fontSize=12;" vertex="1" parent="MAqcaL8bslTjYzWFM4oK-141">
          <mxGeometry y="30" width="261" height="30" as="geometry" />
        </mxCell>
        <mxCell id="MAqcaL8bslTjYzWFM4oK-143" value="PK,FK1" style="shape=partialRectangle;connectable=0;fillColor=none;top=0;left=0;bottom=0;right=0;fontStyle=1;overflow=hidden;fontFamily=Helvetica;fontSize=12;" vertex="1" parent="MAqcaL8bslTjYzWFM4oK-142">
          <mxGeometry width="60" height="30" as="geometry">
            <mxRectangle width="60" height="30" as="alternateBounds" />
          </mxGeometry>
        </mxCell>
        <mxCell id="MAqcaL8bslTjYzWFM4oK-144" value="m_id varchar(10) NOT NULL" style="shape=partialRectangle;connectable=0;fillColor=none;top=0;left=0;bottom=0;right=0;align=left;spacingLeft=6;fontStyle=5;overflow=hidden;fontFamily=Helvetica;fontSize=12;" vertex="1" parent="MAqcaL8bslTjYzWFM4oK-142">
          <mxGeometry x="60" width="201" height="30" as="geometry">
            <mxRectangle width="201" height="30" as="alternateBounds" />
          </mxGeometry>
        </mxCell>
        <mxCell id="MAqcaL8bslTjYzWFM4oK-145" value="" style="shape=tableRow;horizontal=0;startSize=0;swimlaneHead=0;swimlaneBody=0;fillColor=none;collapsible=0;dropTarget=0;points=[[0,0.5],[1,0.5]];portConstraint=eastwest;top=0;left=0;right=0;bottom=1;fontFamily=Helvetica;fontSize=12;" vertex="1" parent="MAqcaL8bslTjYzWFM4oK-141">
          <mxGeometry y="60" width="261" height="30" as="geometry" />
        </mxCell>
        <mxCell id="MAqcaL8bslTjYzWFM4oK-146" value="PK,FK2" style="shape=partialRectangle;connectable=0;fillColor=none;top=0;left=0;bottom=0;right=0;fontStyle=1;overflow=hidden;fontFamily=Helvetica;fontSize=12;" vertex="1" parent="MAqcaL8bslTjYzWFM4oK-145">
          <mxGeometry width="60" height="30" as="geometry">
            <mxRectangle width="60" height="30" as="alternateBounds" />
          </mxGeometry>
        </mxCell>
        <mxCell id="MAqcaL8bslTjYzWFM4oK-147" value="h_id varchar(10) NOT NULL" style="shape=partialRectangle;connectable=0;fillColor=none;top=0;left=0;bottom=0;right=0;align=left;spacingLeft=6;fontStyle=5;overflow=hidden;fontFamily=Helvetica;fontSize=12;" vertex="1" parent="MAqcaL8bslTjYzWFM4oK-145">
          <mxGeometry x="60" width="201" height="30" as="geometry">
            <mxRectangle width="201" height="30" as="alternateBounds" />
          </mxGeometry>
        </mxCell>
        <mxCell id="MAqcaL8bslTjYzWFM4oK-148" value="" style="shape=tableRow;horizontal=0;startSize=0;swimlaneHead=0;swimlaneBody=0;fillColor=none;collapsible=0;dropTarget=0;points=[[0,0.5],[1,0.5]];portConstraint=eastwest;top=0;left=0;right=0;bottom=0;fontFamily=Helvetica;fontSize=12;" vertex="1" parent="MAqcaL8bslTjYzWFM4oK-141">
          <mxGeometry y="90" width="261" height="30" as="geometry" />
        </mxCell>
        <mxCell id="MAqcaL8bslTjYzWFM4oK-149" value="" style="shape=partialRectangle;connectable=0;fillColor=none;top=0;left=0;bottom=0;right=0;editable=1;overflow=hidden;fontFamily=Helvetica;fontSize=12;" vertex="1" parent="MAqcaL8bslTjYzWFM4oK-148">
          <mxGeometry width="60" height="30" as="geometry">
            <mxRectangle width="60" height="30" as="alternateBounds" />
          </mxGeometry>
        </mxCell>
        <mxCell id="MAqcaL8bslTjYzWFM4oK-150" value="price decimal(2) NOT NULL" style="shape=partialRectangle;connectable=0;fillColor=none;top=0;left=0;bottom=0;right=0;align=left;spacingLeft=6;overflow=hidden;fontFamily=Helvetica;fontSize=12;" vertex="1" parent="MAqcaL8bslTjYzWFM4oK-148">
          <mxGeometry x="60" width="201" height="30" as="geometry">
            <mxRectangle width="201" height="30" as="alternateBounds" />
          </mxGeometry>
        </mxCell>
        <mxCell id="MAqcaL8bslTjYzWFM4oK-154" value="" style="shape=link;html=1;rounded=0;fontFamily=Helvetica;fontSize=12;" edge="1" parent="VbQhaL1l99yiaWjRSPSI-1">
          <mxGeometry relative="1" as="geometry">
            <mxPoint x="491" y="763" as="sourcePoint" />
            <mxPoint x="541" y="763" as="targetPoint" />
          </mxGeometry>
        </mxCell>
        <mxCell id="MAqcaL8bslTjYzWFM4oK-156" value="regular Care" style="shape=table;startSize=30;container=1;collapsible=1;childLayout=tableLayout;fixedRows=1;rowLines=0;fontStyle=1;align=center;resizeLast=1;fontFamily=Helvetica;fontSize=12;" vertex="1" parent="VbQhaL1l99yiaWjRSPSI-1">
          <mxGeometry x="333.5" y="90" width="248" height="120" as="geometry" />
        </mxCell>
        <mxCell id="MAqcaL8bslTjYzWFM4oK-157" value="" style="shape=tableRow;horizontal=0;startSize=0;swimlaneHead=0;swimlaneBody=0;fillColor=none;collapsible=0;dropTarget=0;points=[[0,0.5],[1,0.5]];portConstraint=eastwest;top=0;left=0;right=0;bottom=0;fontFamily=Helvetica;fontSize=12;" vertex="1" parent="MAqcaL8bslTjYzWFM4oK-156">
          <mxGeometry y="30" width="248" height="30" as="geometry" />
        </mxCell>
        <mxCell id="MAqcaL8bslTjYzWFM4oK-158" value="PK,FK1" style="shape=partialRectangle;connectable=0;fillColor=none;top=0;left=0;bottom=0;right=0;fontStyle=1;overflow=hidden;fontFamily=Helvetica;fontSize=12;" vertex="1" parent="MAqcaL8bslTjYzWFM4oK-157">
          <mxGeometry width="60" height="30" as="geometry">
            <mxRectangle width="60" height="30" as="alternateBounds" />
          </mxGeometry>
        </mxCell>
        <mxCell id="MAqcaL8bslTjYzWFM4oK-159" value="p_id varchar(10) NOT NULL" style="shape=partialRectangle;connectable=0;fillColor=none;top=0;left=0;bottom=0;right=0;align=left;spacingLeft=6;fontStyle=5;overflow=hidden;fontFamily=Helvetica;fontSize=12;" vertex="1" parent="MAqcaL8bslTjYzWFM4oK-157">
          <mxGeometry x="60" width="188" height="30" as="geometry">
            <mxRectangle width="188" height="30" as="alternateBounds" />
          </mxGeometry>
        </mxCell>
        <mxCell id="MAqcaL8bslTjYzWFM4oK-160" value="" style="shape=tableRow;horizontal=0;startSize=0;swimlaneHead=0;swimlaneBody=0;fillColor=none;collapsible=0;dropTarget=0;points=[[0,0.5],[1,0.5]];portConstraint=eastwest;top=0;left=0;right=0;bottom=1;fontFamily=Helvetica;fontSize=12;" vertex="1" parent="MAqcaL8bslTjYzWFM4oK-156">
          <mxGeometry y="60" width="248" height="30" as="geometry" />
        </mxCell>
        <mxCell id="MAqcaL8bslTjYzWFM4oK-161" value="PK,FK2" style="shape=partialRectangle;connectable=0;fillColor=none;top=0;left=0;bottom=0;right=0;fontStyle=1;overflow=hidden;fontFamily=Helvetica;fontSize=12;" vertex="1" parent="MAqcaL8bslTjYzWFM4oK-160">
          <mxGeometry width="60" height="30" as="geometry">
            <mxRectangle width="60" height="30" as="alternateBounds" />
          </mxGeometry>
        </mxCell>
        <mxCell id="MAqcaL8bslTjYzWFM4oK-162" value="d_id varchar(10) NOT NULL" style="shape=partialRectangle;connectable=0;fillColor=none;top=0;left=0;bottom=0;right=0;align=left;spacingLeft=6;fontStyle=5;overflow=hidden;fontFamily=Helvetica;fontSize=12;" vertex="1" parent="MAqcaL8bslTjYzWFM4oK-160">
          <mxGeometry x="60" width="188" height="30" as="geometry">
            <mxRectangle width="188" height="30" as="alternateBounds" />
          </mxGeometry>
        </mxCell>
        <mxCell id="MAqcaL8bslTjYzWFM4oK-166" value="" style="shape=tableRow;horizontal=0;startSize=0;swimlaneHead=0;swimlaneBody=0;fillColor=none;collapsible=0;dropTarget=0;points=[[0,0.5],[1,0.5]];portConstraint=eastwest;top=0;left=0;right=0;bottom=0;fontFamily=Helvetica;fontSize=12;" vertex="1" parent="MAqcaL8bslTjYzWFM4oK-156">
          <mxGeometry y="90" width="248" height="30" as="geometry" />
        </mxCell>
        <mxCell id="MAqcaL8bslTjYzWFM4oK-167" value="" style="shape=partialRectangle;connectable=0;fillColor=none;top=0;left=0;bottom=0;right=0;editable=1;overflow=hidden;fontFamily=Helvetica;fontSize=12;" vertex="1" parent="MAqcaL8bslTjYzWFM4oK-166">
          <mxGeometry width="60" height="30" as="geometry">
            <mxRectangle width="60" height="30" as="alternateBounds" />
          </mxGeometry>
        </mxCell>
        <mxCell id="MAqcaL8bslTjYzWFM4oK-168" value="" style="shape=partialRectangle;connectable=0;fillColor=none;top=0;left=0;bottom=0;right=0;align=left;spacingLeft=6;overflow=hidden;fontFamily=Helvetica;fontSize=12;" vertex="1" parent="MAqcaL8bslTjYzWFM4oK-166">
          <mxGeometry x="60" width="188" height="30" as="geometry">
            <mxRectangle width="188" height="30" as="alternateBounds" />
          </mxGeometry>
        </mxCell>
        <mxCell id="MAqcaL8bslTjYzWFM4oK-169" value="Primary Care" style="shape=table;startSize=30;container=1;collapsible=1;childLayout=tableLayout;fixedRows=1;rowLines=0;fontStyle=1;align=center;resizeLast=1;fontFamily=Helvetica;fontSize=12;" vertex="1" parent="VbQhaL1l99yiaWjRSPSI-1">
          <mxGeometry x="333.5" y="240" width="248" height="120" as="geometry" />
        </mxCell>
        <mxCell id="MAqcaL8bslTjYzWFM4oK-170" value="" style="shape=tableRow;horizontal=0;startSize=0;swimlaneHead=0;swimlaneBody=0;fillColor=none;collapsible=0;dropTarget=0;points=[[0,0.5],[1,0.5]];portConstraint=eastwest;top=0;left=0;right=0;bottom=0;fontFamily=Helvetica;fontSize=12;" vertex="1" parent="MAqcaL8bslTjYzWFM4oK-169">
          <mxGeometry y="30" width="248" height="30" as="geometry" />
        </mxCell>
        <mxCell id="MAqcaL8bslTjYzWFM4oK-171" value="PK,FK1" style="shape=partialRectangle;connectable=0;fillColor=none;top=0;left=0;bottom=0;right=0;fontStyle=1;overflow=hidden;fontFamily=Helvetica;fontSize=12;" vertex="1" parent="MAqcaL8bslTjYzWFM4oK-170">
          <mxGeometry width="60" height="30" as="geometry">
            <mxRectangle width="60" height="30" as="alternateBounds" />
          </mxGeometry>
        </mxCell>
        <mxCell id="MAqcaL8bslTjYzWFM4oK-172" value="p_id varchar(10) NOT NULL" style="shape=partialRectangle;connectable=0;fillColor=none;top=0;left=0;bottom=0;right=0;align=left;spacingLeft=6;fontStyle=5;overflow=hidden;fontFamily=Helvetica;fontSize=12;" vertex="1" parent="MAqcaL8bslTjYzWFM4oK-170">
          <mxGeometry x="60" width="188" height="30" as="geometry">
            <mxRectangle width="188" height="30" as="alternateBounds" />
          </mxGeometry>
        </mxCell>
        <mxCell id="MAqcaL8bslTjYzWFM4oK-173" value="" style="shape=tableRow;horizontal=0;startSize=0;swimlaneHead=0;swimlaneBody=0;fillColor=none;collapsible=0;dropTarget=0;points=[[0,0.5],[1,0.5]];portConstraint=eastwest;top=0;left=0;right=0;bottom=1;fontFamily=Helvetica;fontSize=12;" vertex="1" parent="MAqcaL8bslTjYzWFM4oK-169">
          <mxGeometry y="60" width="248" height="30" as="geometry" />
        </mxCell>
        <mxCell id="MAqcaL8bslTjYzWFM4oK-174" value="PK,FK2" style="shape=partialRectangle;connectable=0;fillColor=none;top=0;left=0;bottom=0;right=0;fontStyle=1;overflow=hidden;fontFamily=Helvetica;fontSize=12;" vertex="1" parent="MAqcaL8bslTjYzWFM4oK-173">
          <mxGeometry width="60" height="30" as="geometry">
            <mxRectangle width="60" height="30" as="alternateBounds" />
          </mxGeometry>
        </mxCell>
        <mxCell id="MAqcaL8bslTjYzWFM4oK-175" value="d_id varchar(10) NOT NULL" style="shape=partialRectangle;connectable=0;fillColor=none;top=0;left=0;bottom=0;right=0;align=left;spacingLeft=6;fontStyle=5;overflow=hidden;fontFamily=Helvetica;fontSize=12;" vertex="1" parent="MAqcaL8bslTjYzWFM4oK-173">
          <mxGeometry x="60" width="188" height="30" as="geometry">
            <mxRectangle width="188" height="30" as="alternateBounds" />
          </mxGeometry>
        </mxCell>
        <mxCell id="MAqcaL8bslTjYzWFM4oK-176" value="" style="shape=tableRow;horizontal=0;startSize=0;swimlaneHead=0;swimlaneBody=0;fillColor=none;collapsible=0;dropTarget=0;points=[[0,0.5],[1,0.5]];portConstraint=eastwest;top=0;left=0;right=0;bottom=0;fontFamily=Helvetica;fontSize=12;" vertex="1" parent="MAqcaL8bslTjYzWFM4oK-169">
          <mxGeometry y="90" width="248" height="30" as="geometry" />
        </mxCell>
        <mxCell id="MAqcaL8bslTjYzWFM4oK-177" value="" style="shape=partialRectangle;connectable=0;fillColor=none;top=0;left=0;bottom=0;right=0;editable=1;overflow=hidden;fontFamily=Helvetica;fontSize=12;" vertex="1" parent="MAqcaL8bslTjYzWFM4oK-176">
          <mxGeometry width="60" height="30" as="geometry">
            <mxRectangle width="60" height="30" as="alternateBounds" />
          </mxGeometry>
        </mxCell>
        <mxCell id="MAqcaL8bslTjYzWFM4oK-178" value="" style="shape=partialRectangle;connectable=0;fillColor=none;top=0;left=0;bottom=0;right=0;align=left;spacingLeft=6;overflow=hidden;fontFamily=Helvetica;fontSize=12;" vertex="1" parent="MAqcaL8bslTjYzWFM4oK-176">
          <mxGeometry x="60" width="188" height="30" as="geometry">
            <mxRectangle width="188" height="30" as="alternateBounds" />
          </mxGeometry>
        </mxCell>
        <mxCell id="MAqcaL8bslTjYzWFM4oK-179" value="" style="shape=link;html=1;rounded=0;fontFamily=Helvetica;fontSize=12;entryX=0.308;entryY=0.967;entryDx=0;entryDy=0;entryPerimeter=0;exitX=1;exitY=0.133;exitDx=0;exitDy=0;exitPerimeter=0;" edge="1" parent="VbQhaL1l99yiaWjRSPSI-1" source="MAqcaL8bslTjYzWFM4oK-24" target="MAqcaL8bslTjYzWFM4oK-176">
          <mxGeometry relative="1" as="geometry">
            <mxPoint x="292" y="424.5" as="sourcePoint" />
            <mxPoint x="452" y="424.5" as="targetPoint" />
          </mxGeometry>
        </mxCell>
        <mxCell id="SayjMubEVDNsn_lu1LSz-0" style="edgeStyle=orthogonalEdgeStyle;rounded=0;orthogonalLoop=1;jettySize=auto;html=1;exitX=0.944;exitY=0.986;exitDx=0;exitDy=0;entryX=0;entryY=0;entryDx=0;entryDy=0;exitPerimeter=0;" edge="1" parent="VbQhaL1l99yiaWjRSPSI-1" source="MAqcaL8bslTjYzWFM4oK-176" target="MAqcaL8bslTjYzWFM4oK-0">
          <mxGeometry relative="1" as="geometry">
            <Array as="points">
              <mxPoint x="560" y="360" />
              <mxPoint x="560" y="380" />
              <mxPoint x="567" y="380" />
            </Array>
            <mxPoint x="493.42" y="380" as="sourcePoint" />
            <mxPoint x="581.4999999999999" y="381.99" as="targetPoint" />
          </mxGeometry>
        </mxCell>
        <mxCell id="SayjMubEVDNsn_lu1LSz-1" value="" style="endArrow=none;html=1;rounded=0;exitX=0.95;exitY=1.101;exitDx=0;exitDy=0;exitPerimeter=0;" edge="1" parent="VbQhaL1l99yiaWjRSPSI-1" source="MAqcaL8bslTjYzWFM4oK-176">
          <mxGeometry width="50" height="50" relative="1" as="geometry">
            <mxPoint x="486.03999999999996" y="410" as="sourcePoint" />
            <mxPoint x="570" y="440" as="targetPoint" />
          </mxGeometry>
        </mxCell>
        <mxCell id="SayjMubEVDNsn_lu1LSz-2" value="" style="endArrow=none;html=1;rounded=0;fontFamily=Helvetica;fontSize=12;" edge="1" parent="VbQhaL1l99yiaWjRSPSI-1">
          <mxGeometry relative="1" as="geometry">
            <mxPoint x="11" y="519.68" as="sourcePoint" />
            <mxPoint x="20" y="520" as="targetPoint" />
          </mxGeometry>
        </mxCell>
        <mxCell id="SayjMubEVDNsn_lu1LSz-3" value="&lt;span style=&quot;color: rgb(0, 0, 0); font-family: helvetica; font-size: 12px; font-style: normal; font-weight: 700; letter-spacing: normal; text-align: center; text-indent: 0px; text-transform: none; word-spacing: 0px; background-color: rgb(248, 249, 250); display: inline; float: none;&quot;&gt;FK1&lt;/span&gt;" style="text;whiteSpace=wrap;html=1;fontSize=12;fontFamily=Helvetica;" vertex="1" parent="VbQhaL1l99yiaWjRSPSI-1">
          <mxGeometry x="541" y="830" width="50" height="30" as="geometry" />
        </mxCell>
      </root>
    </mxGraphModel>
  </diagram>
</mxfile>
